<svg width="100" height="41" viewBox="0 0 100 41" fill="none" xmlns="http://www.w3.org/2000/svg">
<path d="M4.87109 0.609375V15.2969C4.87109 15.9609 4.84505 16.6901 4.79297 17.4844C4.74089 18.2656 4.6888 19.0013 4.63672 19.6914H4.73438C5.07292 19.2357 5.47656 18.7018 5.94531 18.0898C6.42708 17.4779 6.88281 16.944 7.3125 16.4883L13.9141 9.37891H19.1875L10.5352 18.6758L19.7539 31H14.3633L7.44922 21.5078L4.87109 23.7148V31H0.28125V0.609375H4.87109ZM23.8008 9.37891V31H19.2109V9.37891H23.8008ZM21.5352 1.09766C22.2383 1.09766 22.8438 1.28646 23.3516 1.66406C23.8724 2.04167 24.1328 2.69271 24.1328 3.61719C24.1328 4.52865 23.8724 5.17969 23.3516 5.57031C22.8438 5.94792 22.2383 6.13672 21.5352 6.13672C20.806 6.13672 20.1875 5.94792 19.6797 5.57031C19.1849 5.17969 18.9375 4.52865 18.9375 3.61719C18.9375 2.69271 19.1849 2.04167 19.6797 1.66406C20.1875 1.28646 20.806 1.09766 21.5352 1.09766ZM30.9727 0.609375V7.93359C30.9727 8.77995 30.9466 9.61328 30.8945 10.4336C30.8555 11.2409 30.8164 11.8724 30.7773 12.3281H30.9727C31.5586 11.3906 32.3724 10.6029 33.4141 9.96484C34.4688 9.3138 35.8164 8.98828 37.457 8.98828C40.0221 8.98828 42.0859 9.93229 43.6484 11.8203C45.2109 13.6953 45.9922 16.4753 45.9922 20.1602C45.9922 22.6081 45.6341 24.6654 44.918 26.332C44.2018 27.9987 43.1927 29.2617 41.8906 30.1211C40.6016 30.9674 39.0846 31.3906 37.3398 31.3906C35.6992 31.3906 34.3711 31.0911 33.3555 30.4922C32.3529 29.8802 31.5651 29.1706 30.9922 28.3633H30.6602L29.8203 31H26.3828V0.609375H30.9727ZM36.2461 12.7188C34.944 12.7188 33.9089 12.9792 33.1406 13.5C32.3854 14.0208 31.8385 14.8021 31.5 15.8438C31.1615 16.8724 30.9857 18.181 30.9727 19.7695V20.1797C30.9727 22.5885 31.3503 24.431 32.1055 25.707C32.8737 26.9831 34.2669 27.6211 36.2852 27.6211C37.8867 27.6211 39.1172 26.9766 39.9766 25.6875C40.8359 24.3854 41.2656 22.5234 41.2656 20.1016C41.2656 17.6536 40.8359 15.8112 39.9766 14.5742C39.1302 13.3372 37.8867 12.7188 36.2461 12.7188Z" fill="#414042"/>
<path d="M55.3516 27.6797C55.9505 27.6797 56.543 27.6276 57.1289 27.5234C57.7148 27.4062 58.2487 27.2695 58.7305 27.1133V30.5898C58.2227 30.8112 57.5651 31 56.7578 31.1562C55.9505 31.3125 55.1107 31.3906 54.2383 31.3906C53.0143 31.3906 51.9141 31.1888 50.9375 30.7852C49.9609 30.3685 49.1862 29.6589 48.6133 28.6562C48.0404 27.6536 47.7539 26.2669 47.7539 24.4961V12.875H44.8047V10.8242L47.9688 9.20312L49.4727 4.57422H52.3633V9.37891H58.5547V12.875H52.3633V24.4375C52.3633 25.5312 52.6367 26.3451 53.1836 26.8789C53.7305 27.4128 54.4531 27.6797 55.3516 27.6797Z" fill="#35D073"/>
<path d="M78.2656 20.1406C78.2656 21.9375 78.0312 23.5326 77.5625 24.9258C77.0938 26.319 76.4102 27.4974 75.5117 28.4609C74.6133 29.4115 73.5326 30.1406 72.2695 30.6484C71.0065 31.1432 69.5807 31.3906 67.9922 31.3906C66.5078 31.3906 65.1471 31.1432 63.9102 30.6484C62.6732 30.1406 61.599 29.4115 60.6875 28.4609C59.7891 27.4974 59.0924 26.319 58.5977 24.9258C58.1029 23.5326 57.8555 21.9375 57.8555 20.1406C57.8555 17.7578 58.2656 15.7396 59.0859 14.0859C59.9193 12.4193 61.1042 11.1497 62.6406 10.2773C64.1771 9.40495 66.0065 8.96875 68.1289 8.96875C70.1211 8.96875 71.8789 9.40495 73.4023 10.2773C74.9258 11.1497 76.1172 12.4193 76.9766 14.0859C77.8359 15.7526 78.2656 17.7708 78.2656 20.1406ZM62.582 20.1406C62.582 21.7161 62.7708 23.0638 63.1484 24.1836C63.5391 25.3034 64.138 26.1628 64.9453 26.7617C65.7526 27.3477 66.7943 27.6406 68.0703 27.6406C69.3464 27.6406 70.388 27.3477 71.1953 26.7617C72.0026 26.1628 72.5951 25.3034 72.9727 24.1836C73.3503 23.0638 73.5391 21.7161 73.5391 20.1406C73.5391 18.5651 73.3503 17.2305 72.9727 16.1367C72.5951 15.0299 72.0026 14.1901 71.1953 13.6172C70.388 13.0312 69.3398 12.7383 68.0508 12.7383C66.1497 12.7383 64.763 13.3763 63.8906 14.6523C63.0182 15.9284 62.582 17.7578 62.582 20.1406Z" fill="#FFC11E"/>
<path d="M90.6328 8.96875C93.1979 8.96875 95.2552 9.90625 96.8047 11.7812C98.3672 13.6562 99.1484 16.4427 99.1484 20.1406C99.1484 22.5885 98.7839 24.6523 98.0547 26.332C97.3385 27.9987 96.3294 29.2617 95.0273 30.1211C93.7383 30.9674 92.2344 31.3906 90.5156 31.3906C89.4219 31.3906 88.4714 31.2474 87.6641 30.9609C86.8568 30.6745 86.1667 30.3034 85.5938 29.8477C85.0208 29.3789 84.5391 28.8711 84.1484 28.3242H83.875C83.9401 28.8451 83.9987 29.4245 84.0508 30.0625C84.1159 30.6875 84.1484 31.2604 84.1484 31.7812V40.5898H79.5391V9.37891H83.2891L83.9336 12.3672H84.1484C84.5521 11.7552 85.0404 11.1888 85.6133 10.668C86.1992 10.1471 86.9023 9.73698 87.7227 9.4375C88.556 9.125 89.526 8.96875 90.6328 8.96875ZM89.4023 12.7188C88.1393 12.7188 87.1237 12.9727 86.3555 13.4805C85.6003 13.9753 85.0469 14.724 84.6953 15.7266C84.3568 16.7292 84.1745 17.9857 84.1484 19.4961V20.1406C84.1484 21.7422 84.3112 23.1029 84.6367 24.2227C84.9753 25.3294 85.5286 26.1758 86.2969 26.7617C87.0781 27.3346 88.1328 27.6211 89.4609 27.6211C90.5807 27.6211 91.5052 27.3151 92.2344 26.7031C92.9766 26.0911 93.5299 25.2188 93.8945 24.0859C94.2591 22.9531 94.4414 21.6185 94.4414 20.082C94.4414 17.7513 94.0247 15.9414 93.1914 14.6523C92.3711 13.3633 91.1081 12.7188 89.4023 12.7188Z" fill="#7AB1FF"/>
</svg>
